  <svg xmlns="http://www.w3.org/2000/svg" width="3027.000000pt" height="1082.000000pt"
        viewBox="0 0 3027.000000 1082.000000" preserveAspectRatio="xMidYMid meet"
        style="width: 124px; height: 40px; color: rgb(138, 63, 46);">
        <g transform="translate(0.000000,1082.000000) scale(0.100000,-0.100000)" stroke="none">
            <path
                d="M9571 10580 c-105 -28 -196 -75 -358 -187 -79 -54 -235 -161 -348 -238 -113 -77 -260 -177 -326 -222 -66 -46 -202 -138 -302 -206 -100 -69 -238 -163 -307 -210 -69 -47 -181 -124 -250 -171 -69 -46 -201 -137 -295 -201 -93 -64 -233 -159 -310 -211 -77 -53 -194 -132 -260 -177 -66 -46 -168 -115 -226 -155 -76 -51 -112 -83 -123 -106 -49 -104 21 -216 136 -216 50 0 52 1 393 235 50 34 142 97 205 140 63 43 156 106 205 140 50 34 142 97 205 140 63 43 149 102 190 130 41 28 138 94 215 147 77 52 196 134 265 181 69 47 222 151 340 232 118 80 316 215 440 300 463 316 483 329 555 354 52 17 92 23 155 23 133 0 193 -25 416 -178 286 -195 403 -275 641 -437 120 -82 319 -217 443 -302 124 -85 275 -188 335 -229 61 -41 157 -107 215 -146 118 -81 219 -150 630 -431 157 -107 332 -226 390 -266 58 -39 161 -110 230 -157 69 -46 177 -120 240 -163 63 -43 187 -128 275 -188 484 -329 496 -339 561 -470 l39 -79 0 -131 c-1 -124 -2 -133 -31 -195 -56 -119 -146 -208 -266 -262 -57 -26 -163 -41 -236 -34 -135 14 -128 10 -832 491 -124 85 -315 215 -425 290 -110 75 -294 201 -410 280 -115 79 -300 205 -410 280 -110 75 -294 201 -410 280 -192 132 -344 235 -760 518 -252 172 -467 319 -525 359 -47 33 -63 38 -110 38 -54 0 -59 -3 -215 -109 -88 -61 -263 -180 -390 -266 -126 -86 -271 -184 -320 -218 -50 -34 -374 -255 -720 -492 -346 -236 -676 -461 -732 -500 -57 -38 -194 -132 -305 -208 -112 -76 -304 -207 -428 -292 -390 -266 -594 -401 -633 -419 -22 -9 -72 -22 -113 -28 -216 -34 -422 77 -520 277 -37 76 -39 85 -42 195 -3 104 -1 121 22 183 49 131 104 189 316 332 80 54 179 122 220 150 41 28 124 85 184 126 124 84 146 112 146 183 0 115 -114 181 -218 127 -20 -11 -102 -65 -182 -120 -80 -55 -217 -148 -304 -208 -202 -137 -251 -177 -315 -257 -193 -242 -230 -580 -94 -851 145 -290 444 -462 769 -441 93 5 222 39 299 79 35 17 253 163 560 374 50 34 194 132 320 218 127 86 286 195 355 242 69 47 188 129 265 181 77 53 174 119 215 147 41 28 203 139 360 246 157 107 331 226 387 264 57 39 194 132 305 208 112 76 289 197 393 268 105 71 241 164 302 206 l113 76 67 -45 c38 -25 145 -99 238 -163 94 -64 233 -159 310 -211 77 -52 235 -160 350 -239 116 -79 262 -179 325 -222 63 -43 207 -141 320 -218 113 -78 277 -190 365 -250 175 -119 343 -234 505 -345 58 -39 161 -110 230 -156 69 -47 226 -155 350 -239 519 -355 512 -351 644 -393 70 -22 100 -25 221 -26 149 0 194 8 319 61 173 72 324 220 407 396 97 209 93 478 -10 687 -43 86 -129 198 -195 252 -29 23 -138 101 -242 171 -104 71 -283 193 -399 272 -115 79 -255 174 -310 212 -55 37 -206 140 -335 228 -129 89 -314 214 -410 280 -96 66 -220 150 -275 188 -55 38 -149 102 -210 143 -60 42 -218 149 -350 239 -132 90 -330 225 -440 300 -110 75 -393 269 -630 430 -236 162 -463 310 -503 330 -110 54 -205 75 -347 74 -85 0 -141 -6 -194 -19z"
                fill="currentColor"></path>
            <path
                d="M16470 7764 c-280 -36 -518 -117 -704 -241 -92 -62 -258 -228 -319 -320 -86 -130 -154 -283 -191 -428 -29 -116 -39 -202 -45 -405 l-6 -205 -297 -3 -298 -2 0 -430 0 -430 298 -2 297 -3 3 -1462 2 -1463 560 0 560 0 0 1465 0 1465 480 0 480 0 0 430 0 430 -495 0 -495 0 0 148 c0 115 4 166 20 226 64 252 233 366 522 354 138 -6 224 -28 334 -84 94 -48 88 -50 117 36 9 25 30 83 47 130 18 47 35 96 40 110 5 14 23 63 40 110 17 47 35 96 40 110 5 14 23 63 40 110 53 140 55 152 33 168 -37 29 -161 83 -253 112 -181 55 -302 72 -550 75 -124 2 -241 1 -260 -1z"
                fill="currentColor"></path>
            <path
                d="M420 4890 l0 -2520 580 0 580 0 0 705 0 705 538 0 538 0 89 -130 c50 -72 117 -170 150 -218 34 -48 90 -130 126 -182 188 -271 368 -532 404 -583 22 -32 76 -110 120 -175 l81 -117 623 -3 c407 -1 622 1 619 8 -3 8 -297 433 -523 755 -112 160 -446 639 -529 759 -41 58 -65 101 -58 104 7 2 56 26 109 54 277 141 509 348 666 593 166 260 249 572 249 940 0 512 -160 919 -486 1240 -302 296 -682 469 -1221 556 -139 23 -148 23 -1397 26 l-1258 4 0 -2521z m2400 1555 c470 -71 740 -329 780 -746 56 -580 -275 -940 -911 -988 -81 -6 -363 -11 -628 -11 l-481 0 0 880 0 880 573 0 c447 0 593 -3 667 -15z"
                fill="currentColor"></path>
            <path
                d="M6765 6531 c-251 -62 -434 -250 -497 -509 -30 -127 -20 -239 38 -412 3 -10 -14 -26 -53 -49 -135 -80 -251 -226 -300 -378 -22 -66 -26 -97 -26 -198 0 -109 3 -129 32 -214 17 -52 28 -98 24 -102 -5 -4 -27 -23 -51 -43 -266 -220 -285 -612 -41 -855 102 -102 227 -156 390 -167 l99 -7 0 -141 c0 -78 7 -182 14 -231 61 -400 299 -758 646 -972 175 -108 394 -180 601 -199 l69 -7 10 -41 c32 -127 146 -274 257 -330 59 -29 159 -56 215 -56 41 0 43 -3 53 -90 4 -30 17 -98 30 -150 110 -441 429 -827 845 -1024 770 -364 1683 -46 2068 719 72 143 114 272 141 435 l17 105 63 7 c139 15 245 69 334 168 57 64 85 113 107 195 l17 60 144 6 c212 10 360 46 545 134 236 111 424 271 560 477 l46 68 306 0 c281 0 311 2 349 20 24 11 51 33 63 52 20 33 20 41 17 1058 l-3 1025 -31 130 c-55 232 -153 467 -217 523 -31 27 -44 32 -89 32 -63 0 -109 -25 -133 -72 -28 -54 -21 -103 30 -212 26 -55 63 -152 82 -215 67 -220 67 -223 71 -1173 l4 -858 -157 0 -156 0 6 23 c52 178 57 276 54 1074 -3 721 -3 732 -24 759 -40 54 -67 66 -161 74 -119 11 -204 34 -292 81 -132 71 -235 165 -321 294 -41 62 -65 82 -113 95 -56 16 -96 0 -178 -71 -172 -147 -388 -251 -674 -323 -227 -58 -539 -95 -790 -96 -130 0 -179 -17 -213 -72 -22 -35 -22 -37 -22 -712 0 -372 -2 -676 -5 -676 -3 0 -32 14 -65 30 l-60 30 0 50 c0 63 -32 150 -82 221 l-39 57 4 473 c4 428 6 483 24 564 54 242 126 410 259 601 214 309 538 531 913 625 222 56 624 61 846 11 254 -58 477 -168 675 -331 94 -77 136 -90 199 -64 60 25 91 70 91 134 0 68 -13 90 -99 162 -184 156 -428 286 -671 358 -343 103 -862 102 -1199 -1 -436 -134 -796 -403 -1036 -775 -125 -193 -186 -331 -244 -545 -50 -186 -54 -234 -58 -662 l-5 -408 -29 0 c-16 0 -29 5 -29 13 0 31 -52 118 -104 174 -31 33 -56 70 -56 82 0 33 -46 145 -83 203 -32 50 -115 135 -165 170 -22 15 -23 18 -9 44 64 124 77 329 31 474 -14 44 -41 109 -61 143 -49 84 -149 185 -228 232 -36 21 -65 40 -65 44 0 3 12 42 27 86 34 103 38 263 9 365 -54 187 -186 349 -347 427 -156 76 -115 73 -1151 72 -842 0 -929 -2 -993 -18z m1999 -315 c78 -38 140 -102 178 -182 27 -57 30 -76 30 -154 0 -105 -22 -164 -96 -250 -54 -63 -73 -117 -56 -163 26 -76 60 -100 161 -116 130 -21 226 -90 287 -206 25 -45 27 -60 27 -160 0 -100 -2 -115 -27 -160 -28 -54 -94 -135 -109 -135 -5 0 -9 27 -9 60 0 69 -15 106 -60 144 -40 33 -103 34 -273 5 -302 -52 -595 13 -842 189 -154 109 -264 242 -361 438 -63 126 -71 138 -109 155 -48 22 -84 24 -130 5 -53 -22 -82 -77 -89 -168 -14 -186 -125 -334 -307 -410 -49 -20 -76 -22 -279 -27 -249 -7 -261 -9 -300 -74 -17 -28 -20 -51 -20 -174 0 -83 -4 -143 -9 -143 -19 0 -95 99 -119 156 -37 88 -35 200 6 287 16 36 47 83 67 106 46 51 141 98 224 112 35 5 76 16 91 24 43 22 70 74 70 132 0 46 -5 57 -51 114 -103 127 -130 241 -90 366 39 120 117 201 234 244 50 18 95 18 977 16 l925 -2 59 -29z m-1234 -1121 c49 -64 151 -162 235 -226 258 -197 585 -301 900 -285 72 3 142 9 158 12 l27 6 0 -165 0 -166 -36 -27 c-53 -41 -112 -129 -134 -202 -56 -182 11 -445 165 -648 6 -9 1 -19 -20 -35 -17 -12 -82 -74 -145 -138 -156 -157 -259 -311 -334 -496 l-33 -80 -103 -7 c-118 -8 -197 -32 -277 -85 -61 -40 -122 -104 -154 -163 l-24 -42 -85 6 c-180 13 -411 102 -561 215 -209 159 -353 389 -409 651 -19 90 -20 133 -20 828 l0 732 105 0 c180 0 322 40 458 130 75 49 180 151 212 208 11 17 22 32 26 32 4 0 26 -25 49 -55z m4920 -91 c163 -166 378 -285 573 -319 l38 -6 -4 -697 c-4 -764 -2 -731 -67 -917 -70 -198 -243 -416 -422 -532 -179 -116 -348 -171 -554 -180 -181 -8 -191 -5 -236 67 -45 73 -130 141 -227 181 -61 25 -91 31 -181 36 l-108 6 -12 41 c-36 124 -203 390 -318 508 -38 40 -47 56 -53 100 -4 29 -8 346 -8 704 l-1 651 123 6 c510 27 1005 165 1307 366 41 27 77 50 80 50 3 1 35 -29 70 -65z m-6198 -595 c29 -18 69 -37 88 -44 l35 -12 0 -224 0 -224 -30 -4 c-53 -6 -158 19 -200 47 -22 15 -54 47 -72 70 -99 130 -54 329 92 405 17 9 31 16 32 17 1 0 26 -14 55 -31z m3116 12 c37 -19 88 -66 94 -87 2 -7 -31 -29 -73 -51 l-76 -39 -33 22 c-18 13 -55 31 -82 41 -57 20 -60 40 -8 58 19 7 58 26 85 43 28 17 51 31 53 31 1 1 19 -8 40 -18z m-258 -406 c36 -19 60 -62 60 -109 0 -65 73 -126 152 -126 83 0 134 57 153 173 10 63 82 95 144 63 34 -18 51 -54 51 -110 0 -76 32 -139 85 -169 11 -6 79 -14 151 -17 124 -5 133 -6 167 -33 49 -37 67 -75 67 -139 0 -64 -31 -117 -83 -142 -51 -24 -626 -24 -708 0 -224 66 -389 279 -389 502 0 48 4 58 34 88 38 38 70 43 116 19z m1338 -812 c296 -187 478 -436 569 -781 25 -93 26 -111 30 -426 4 -275 2 -346 -12 -430 -76 -462 -412 -855 -850 -995 -166 -54 -238 -63 -428 -59 -196 5 -283 23 -444 88 -346 142 -617 434 -727 787 -54 170 -61 234 -60 563 0 332 10 417 68 588 76 221 238 447 422 588 74 57 76 58 107 44 18 -7 70 -27 117 -44 l85 -30 369 -4 c349 -3 371 -2 428 17 72 24 140 66 187 115 19 20 38 36 41 36 4 0 48 -26 98 -57z m-2211 -900 c-4 -21 -9 -116 -13 -212 l-7 -173 -40 5 c-54 7 -117 53 -147 107 -75 136 25 304 184 309 28 1 28 0 23 -36z m3186 26 c48 -13 102 -61 129 -112 29 -57 22 -146 -15 -204 -30 -48 -107 -93 -157 -93 l-30 0 0 158 c0 86 -3 181 -6 210 -7 50 -6 52 17 52 13 0 41 -5 62 -11z"
                fill="currentColor"></path>
            <path
                d="M7360 4578 c-61 -42 -70 -74 -70 -246 0 -172 8 -204 61 -245 75 -56 173 -37 217 42 20 35 22 53 22 200 0 178 -5 198 -60 245 -42 35 -121 37 -170 4z"
                fill="currentColor"></path>
            <path
                d="M8000 4574 c-55 -47 -60 -67 -60 -244 0 -128 3 -169 16 -196 18 -37 64 -71 111 -80 42 -8 114 25 144 67 23 33 24 40 24 209 0 167 -1 176 -23 208 -31 43 -71 62 -131 62 -39 0 -56 -6 -81 -26z"
                fill="currentColor"></path>
            <path
                d="M7261 3720 c-18 -4 -47 -22 -64 -39 -27 -26 -32 -39 -35 -93 -3 -55 0 -67 21 -96 62 -82 218 -180 357 -224 66 -20 94 -23 230 -22 140 0 163 3 235 27 112 38 215 98 292 171 63 60 66 64 71 117 5 64 -12 107 -55 137 -65 45 -141 33 -214 -32 -92 -83 -206 -126 -334 -126 -127 0 -236 40 -333 124 -43 37 -109 69 -132 65 -3 -1 -20 -5 -39 -9z"
                fill="currentColor"></path>
            <path
                d="M11531 4433 c-71 -37 -76 -53 -79 -261 -2 -163 0 -191 15 -221 56 -107 215 -106 264 2 16 36 19 66 19 204 0 182 -10 224 -61 262 -41 31 -114 37 -158 14z"
                fill="currentColor"></path>
            <path
                d="M12260 4433 c-19 -10 -45 -33 -57 -52 -22 -32 -23 -43 -23 -221 0 -178 1 -189 23 -221 64 -97 207 -87 258 17 19 39 20 58 17 218 -3 158 -5 177 -24 202 -50 68 -129 91 -194 57z"
                fill="currentColor"></path>
            <path
                d="M11483 3570 c-25 -11 -51 -33 -63 -52 -23 -39 -26 -110 -6 -150 34 -64 164 -156 300 -210 79 -32 84 -32 241 -33 149 0 165 2 241 28 93 32 175 79 250 142 103 88 112 184 24 258 -62 52 -135 45 -212 -22 -51 -45 -121 -86 -163 -96 -166 -39 -295 -14 -411 81 -96 78 -129 87 -201 54z"
                fill="currentColor"></path>
            <path
                d="M9265 2661 c-58 -40 -65 -67 -65 -261 0 -192 7 -223 63 -264 38 -28 125 -28 163 0 65 48 69 61 72 236 4 182 -5 232 -49 274 -24 23 -40 29 -92 32 -50 2 -68 -1 -92 -17z"
                fill="currentColor"></path>
            <path
                d="M10164 2670 c-31 -12 -72 -66 -79 -104 -4 -18 -5 -109 -3 -201 l3 -166 41 -39 c54 -50 100 -60 163 -34 33 14 52 30 68 59 21 37 23 52 23 208 0 187 -7 216 -59 260 -27 22 -42 27 -84 26 -29 0 -61 -4 -73 -9z"
                fill="currentColor"></path>
            <path
                d="M9242 1902 c-72 -21 -122 -103 -108 -177 9 -47 85 -126 182 -188 315 -203 724 -181 1019 53 81 65 105 103 105 167 0 67 -30 111 -92 137 -62 26 -103 14 -183 -54 -181 -154 -421 -184 -630 -80 -44 21 -100 58 -124 81 -65 61 -111 77 -169 61z"
                fill="currentColor"></path>
            <path
                d="M20465 6285 c-340 -43 -648 -184 -875 -401 -42 -41 -80 -74 -84 -74 -3 0 -6 97 -6 215 l0 215 -535 0 -535 0 2 -1932 3 -1933 557 -3 557 -2 4 1067 c3 946 5 1078 20 1158 61 329 201 537 442 654 123 61 222 81 390 81 240 0 376 -49 510 -184 88 -88 135 -170 174 -302 49 -167 51 -202 51 -1376 l0 -1098 560 0 560 0 0 988 c0 543 5 1041 9 1107 34 454 240 741 606 841 57 15 104 19 245 19 155 0 183 -3 244 -23 175 -57 312 -171 384 -322 54 -111 89 -247 102 -390 6 -68 10 -541 10 -1167 l0 -1053 561 0 560 0 -4 1233 c-3 847 -8 1260 -16 1322 -57 446 -212 776 -473 1006 -283 250 -634 368 -1088 368 -354 0 -650 -73 -932 -231 -134 -75 -242 -159 -363 -283 l-111 -113 -39 56 c-140 201 -368 372 -618 466 -256 96 -573 129 -872 91z"
                fill="currentColor"></path>
            <path
                d="M27520 6285 c-929 -104 -1636 -785 -1754 -1691 -20 -149 -21 -414 -2 -564 95 -751 588 -1335 1336 -1582 142 -47 263 -76 445 -105 89 -15 170 -18 420 -18 272 1 326 4 440 23 470 80 807 243 1084 525 l64 66 -275 298 c-151 164 -285 310 -298 325 -23 28 -24 28 -42 8 -38 -41 -160 -133 -236 -179 -151 -90 -311 -142 -517 -166 -164 -19 -239 -19 -395 0 -391 49 -687 240 -837 540 -38 75 -73 177 -73 210 l0 25 1463 0 1464 0 9 153 c34 560 -98 1030 -397 1417 -310 401 -787 657 -1334 716 -158 17 -409 16 -565 -1z m570 -862 c274 -70 508 -270 611 -523 35 -87 72 -227 65 -246 -5 -12 -161 -14 -950 -14 -648 0 -947 3 -951 10 -14 23 40 209 88 305 61 125 184 265 300 344 213 145 556 196 837 124z"
                fill="currentColor"></path>
        </g>
    </svg>